{
    "asset" : {
        "generator" : "Khronos glTF Blender I/O v1.0.5",
        "version" : "2.0"
    },
    "extensionsUsed" : [
        "KHR_texture_transform"
    ],
    "extensionsRequired" : [
        "KHR_texture_transform"
    ],
    "scene" : 0,
    "scenes" : [
        {
            "name" : "Scene",
            "nodes" : [
                5
            ]
        }
    ],
    "nodes" : [
        {
            "mesh" : 0,
            "name" : "China_BaseArco"
        },
        {
            "mesh" : 1,
            "name" : "China_Dragon",
            "translation" : [
                0,
                0,
                -2.952755928039551
            ]
        },
        {
            "mesh" : 2,
            "name" : "China_SkinArco",
            "translation" : [
                -13.3116455078125,
                -3.597200338845141e-05,
                -167.07655334472656
            ]
        },
        {
            "mesh" : 3,
            "name" : "China_SkinPiso",
            "translation" : [
                9.264730453491211,
                0,
                -91.50737762451172
            ]
        },
        {
            "mesh" : 4,
            "name" : "OG_BaseLeon.001"
        },
        {
            "children" : [
                0,
                1,
                2,
                3,
                4
            ],
            "name" : "UV_China",
            "rotation" : [
                0.5,
                0.4999999701976776,
                -0.5000000596046448,
                0.4999999403953552
            ],
            "scale" : [
                0.0010000000474974513,
                0.0010000000474974513,
                0.0010000000474974513
            ]
        }
    ],
    "materials" : [
        {
            "doubleSided" : true,
            "name" : "China-BaseArco",
            "pbrMetallicRoughness" : {
                "baseColorTexture" : {
                    "extensions" : {
                        "KHR_texture_transform" : {
                            "offset" : [
                                0,
                                -1
                            ]
                        }
                    },
                    "index" : 0,
                    "texCoord" : 0
                },
                "metallicFactor" : 0,
                "roughnessFactor" : 0.4343145787715912
            }
        },
        {
            "doubleSided" : true,
            "name" : "China-Dragon",
            "pbrMetallicRoughness" : {
                "baseColorTexture" : {
                    "extensions" : {
                        "KHR_texture_transform" : {
                            "offset" : [
                                0,
                                -1
                            ]
                        }
                    },
                    "index" : 1,
                    "texCoord" : 0
                },
                "metallicFactor" : 0,
                "roughnessFactor" : 0.4343145787715912
            }
        },
        {
            "doubleSided" : true,
            "name" : "China-SkinArco",
            "pbrMetallicRoughness" : {
                "baseColorTexture" : {
                    "extensions" : {
                        "KHR_texture_transform" : {
                            "offset" : [
                                0,
                                -1
                            ]
                        }
                    },
                    "index" : 2,
                    "texCoord" : 0
                },
                "metallicFactor" : 0,
                "roughnessFactor" : 0.4343145787715912
            }
        },
        {
            "doubleSided" : true,
            "name" : "China-SkinPiso",
            "pbrMetallicRoughness" : {
                "baseColorTexture" : {
                    "extensions" : {
                        "KHR_texture_transform" : {
                            "offset" : [
                                0,
                                -1
                            ]
                        }
                    },
                    "index" : 3,
                    "texCoord" : 0
                },
                "metallicFactor" : 0,
                "roughnessFactor" : 0.4343145787715912
            }
        },
        {
            "doubleSided" : true,
            "name" : "OG-BaseLeon.002",
            "pbrMetallicRoughness" : {
                "baseColorTexture" : {
                    "extensions" : {
                        "KHR_texture_transform" : {
                            "offset" : [
                                0,
                                -1
                            ]
                        }
                    },
                    "index" : 4,
                    "texCoord" : 0
                },
                "metallicFactor" : 0,
                "roughnessFactor" : 0.4343145787715912
            }
        }
    ],
    "meshes" : [
        {
            "name" : "Mesh.011",
            "primitives" : [
                {
                    "attributes" : {
                        "POSITION" : 0,
                        "NORMAL" : 1,
                        "TEXCOORD_0" : 2
                    },
                    "indices" : 3,
                    "material" : 0
                }
            ]
        },
        {
            "name" : "Mesh.009",
            "primitives" : [
                {
                    "attributes" : {
                        "POSITION" : 4,
                        "NORMAL" : 5,
                        "TEXCOORD_0" : 6
                    },
                    "indices" : 7,
                    "material" : 1
                }
            ]
        },
        {
            "name" : "Mesh.008",
            "primitives" : [
                {
                    "attributes" : {
                        "POSITION" : 8,
                        "NORMAL" : 9,
                        "TEXCOORD_0" : 10
                    },
                    "indices" : 11,
                    "material" : 2
                }
            ]
        },
        {
            "name" : "Mesh.010",
            "primitives" : [
                {
                    "attributes" : {
                        "POSITION" : 12,
                        "NORMAL" : 13,
                        "TEXCOORD_0" : 14
                    },
                    "indices" : 15,
                    "material" : 3
                }
            ]
        },
        {
            "name" : "Mesh.012",
            "primitives" : [
                {
                    "attributes" : {
                        "POSITION" : 16,
                        "NORMAL" : 17,
                        "TEXCOORD_0" : 18
                    },
                    "indices" : 19,
                    "material" : 4
                }
            ]
        }
    ],
    "textures" : [
        {
            "source" : 0
        },
        {
            "source" : 1
        },
        {
            "source" : 2
        },
        {
            "source" : 3
        },
        {
            "source" : 4
        }
    ],
    "images" : [
        {
            "bufferView" : 4,
            "mimeType" : "image/jpeg",
            "name" : "China-BaseArco"
        },
        {
            "bufferView" : 9,
            "mimeType" : "image/jpeg",
            "name" : "China-SkinDragon"
        },
        {
            "bufferView" : 14,
            "mimeType" : "image/jpeg",
            "name" : "China-SkinArco"
        },
        {
            "bufferView" : 19,
            "mimeType" : "image/jpeg",
            "name" : "China-SkinPiso"
        },
        {
            "bufferView" : 24,
            "mimeType" : "image/jpeg",
            "name" : "OG-BaseLeon"
        }
    ],
    "accessors" : [
        {
            "bufferView" : 0,
            "componentType" : 5126,
            "count" : 18231,
            "max" : [
                206.01278686523438,
                206.01278686523438,
                0
            ],
            "min" : [
                -206.01278686523438,
                -206.01278686523438,
                -349.154296875
            ],
            "type" : "VEC3"
        },
        {
            "bufferView" : 1,
            "componentType" : 5126,
            "count" : 18231,
            "type" : "VEC3"
        },
        {
            "bufferView" : 2,
            "componentType" : 5126,
            "count" : 18231,
            "type" : "VEC2"
        },
        {
            "bufferView" : 3,
            "componentType" : 5123,
            "count" : 45918,
            "type" : "SCALAR"
        },
        {
            "bufferView" : 5,
            "componentType" : 5126,
            "count" : 1374,
            "max" : [
                199.362548828125,
                30.63259506225586,
                3.552713678800501e-15
            ],
            "min" : [
                -183.9934539794922,
                -72.3848648071289,
                -47.893131256103516
            ],
            "type" : "VEC3"
        },
        {
            "bufferView" : 6,
            "componentType" : 5126,
            "count" : 1374,
            "type" : "VEC3"
        },
        {
            "bufferView" : 7,
            "componentType" : 5126,
            "count" : 1374,
            "type" : "VEC2"
        },
        {
            "bufferView" : 8,
            "componentType" : 5123,
            "count" : 3948,
            "type" : "SCALAR"
        },
        {
            "bufferView" : 10,
            "componentType" : 5126,
            "count" : 4051,
            "max" : [
                45.55561065673828,
                142.28111267089844,
                130.14369201660156
            ],
            "min" : [
                -45.55561065673828,
                -142.28111267089844,
                -130.14369201660156
            ],
            "type" : "VEC3"
        },
        {
            "bufferView" : 11,
            "componentType" : 5126,
            "count" : 4051,
            "type" : "VEC3"
        },
        {
            "bufferView" : 12,
            "componentType" : 5126,
            "count" : 4051,
            "type" : "VEC2"
        },
        {
            "bufferView" : 13,
            "componentType" : 5123,
            "count" : 9870,
            "type" : "SCALAR"
        },
        {
            "bufferView" : 15,
            "componentType" : 5126,
            "count" : 1868,
            "max" : [
                150.65652465820312,
                141.3917999267578,
                88.55522918701172
            ],
            "min" : [
                -150.65652465820312,
                -141.3917999267578,
                -88.55522918701172
            ],
            "type" : "VEC3"
        },
        {
            "bufferView" : 16,
            "componentType" : 5126,
            "count" : 1868,
            "type" : "VEC3"
        },
        {
            "bufferView" : 17,
            "componentType" : 5126,
            "count" : 1868,
            "type" : "VEC2"
        },
        {
            "bufferView" : 18,
            "componentType" : 5123,
            "count" : 6168,
            "type" : "SCALAR"
        },
        {
            "bufferView" : 20,
            "componentType" : 5126,
            "count" : 4034,
            "max" : [
                7.677095890045166,
                39.875946044921875,
                -337.5096740722656
            ],
            "min" : [
                -10.828910827636719,
                -39.350791931152344,
                -394.3524169921875
            ],
            "type" : "VEC3"
        },
        {
            "bufferView" : 21,
            "componentType" : 5126,
            "count" : 4034,
            "type" : "VEC3"
        },
        {
            "bufferView" : 22,
            "componentType" : 5126,
            "count" : 4034,
            "type" : "VEC2"
        },
        {
            "bufferView" : 23,
            "componentType" : 5123,
            "count" : 10320,
            "type" : "SCALAR"
        }
    ],
    "bufferViews" : [
        {
            "buffer" : 0,
            "byteLength" : 218772,
            "byteOffset" : 0
        },
        {
            "buffer" : 0,
            "byteLength" : 218772,
            "byteOffset" : 218772
        },
        {
            "buffer" : 0,
            "byteLength" : 145848,
            "byteOffset" : 437544
        },
        {
            "buffer" : 0,
            "byteLength" : 91836,
            "byteOffset" : 583392
        },
        {
            "buffer" : 0,
            "byteLength" : 298507,
            "byteOffset" : 675228
        },
        {
            "buffer" : 0,
            "byteLength" : 16488,
            "byteOffset" : 973736
        },
        {
            "buffer" : 0,
            "byteLength" : 16488,
            "byteOffset" : 990224
        },
        {
            "buffer" : 0,
            "byteLength" : 10992,
            "byteOffset" : 1006712
        },
        {
            "buffer" : 0,
            "byteLength" : 7896,
            "byteOffset" : 1017704
        },
        {
            "buffer" : 0,
            "byteLength" : 340917,
            "byteOffset" : 1025600
        },
        {
            "buffer" : 0,
            "byteLength" : 48612,
            "byteOffset" : 1366520
        },
        {
            "buffer" : 0,
            "byteLength" : 48612,
            "byteOffset" : 1415132
        },
        {
            "buffer" : 0,
            "byteLength" : 32408,
            "byteOffset" : 1463744
        },
        {
            "buffer" : 0,
            "byteLength" : 19740,
            "byteOffset" : 1496152
        },
        {
            "buffer" : 0,
            "byteLength" : 488025,
            "byteOffset" : 1515892
        },
        {
            "buffer" : 0,
            "byteLength" : 22416,
            "byteOffset" : 2003920
        },
        {
            "buffer" : 0,
            "byteLength" : 22416,
            "byteOffset" : 2026336
        },
        {
            "buffer" : 0,
            "byteLength" : 14944,
            "byteOffset" : 2048752
        },
        {
            "buffer" : 0,
            "byteLength" : 12336,
            "byteOffset" : 2063696
        },
        {
            "buffer" : 0,
            "byteLength" : 273922,
            "byteOffset" : 2076032
        },
        {
            "buffer" : 0,
            "byteLength" : 48408,
            "byteOffset" : 2349956
        },
        {
            "buffer" : 0,
            "byteLength" : 48408,
            "byteOffset" : 2398364
        },
        {
            "buffer" : 0,
            "byteLength" : 32272,
            "byteOffset" : 2446772
        },
        {
            "buffer" : 0,
            "byteLength" : 20640,
            "byteOffset" : 2479044
        },
        {
            "buffer" : 0,
            "byteLength" : 132142,
            "byteOffset" : 2499684
        }
    ],
    "buffers" : [
        {
            "byteLength" : 2631828,
            "uri" : "data:application/octet-stream;base64,"
        }
    ]
}
