{
    "asset" : {
        "generator" : "Khronos glTF Blender I/O v1.0.5",
        "version" : "2.0"
    },
    "extensionsUsed" : [
        "KHR_texture_transform"
    ],
    "extensionsRequired" : [
        "KHR_texture_transform"
    ],
    "scene" : 0,
    "scenes" : [
        {
            "name" : "Scene",
            "nodes" : [
                0,
                1,
                5
            ]
        }
    ],
    "nodes" : [
        {
            "name" : "Light",
            "rotation" : [
                0.16907575726509094,
                0.7558803558349609,
                -0.27217137813568115,
                0.570947527885437
            ],
            "translation" : [
                4.076245307922363,
                5.903861999511719,
                -1.0054539442062378
            ]
        },
        {
            "name" : "Camera",
            "rotation" : [
                0.483536034822464,
                0.33687159419059753,
                -0.20870360732078552,
                0.7804827094078064
            ],
            "translation" : [
                7.358891487121582,
                4.958309173583984,
                6.925790786743164
            ]
        },
        {
            "mesh" : 0,
            "name" : "HNY_BaseArco"
        },
        {
            "mesh" : 1,
            "name" : "HNY_SkinArco",
            "translation" : [
                46.410762786865234,
                -2.46759805122565e-06,
                -150.0865020751953
            ]
        },
        {
            "mesh" : 2,
            "name" : "OG_BaseLeon"
        },
        {
            "children" : [
                2,
                3,
                4
            ],
            "name" : "UV_HNY",
            "rotation" : [
                0.5,
                0.4999999701976776,
                -0.5000000596046448,
                0.4999999403953552
            ],
            "scale" : [
                0.0010000000474974513,
                0.0010000000474974513,
                0.0010000000474974513
            ]
        }
    ],
    "materials" : [
        {
            "doubleSided" : true,
            "name" : "HNY-BaseArco",
            "pbrMetallicRoughness" : {
                "baseColorTexture" : {
                    "extensions" : {
                        "KHR_texture_transform" : {
                            "offset" : [
                                0,
                                -1
                            ]
                        }
                    },
                    "index" : 0,
                    "texCoord" : 0
                },
                "metallicFactor" : 0,
                "roughnessFactor" : 0.4343145787715912
            }
        },
        {
            "doubleSided" : true,
            "name" : "HNY-SkinArco",
            "pbrMetallicRoughness" : {
                "baseColorTexture" : {
                    "extensions" : {
                        "KHR_texture_transform" : {
                            "offset" : [
                                0,
                                -1
                            ]
                        }
                    },
                    "index" : 1,
                    "texCoord" : 0
                },
                "metallicFactor" : 0,
                "roughnessFactor" : 0.4343145787715912
            }
        },
        {
            "doubleSided" : true,
            "name" : "OG-BaseLeon.001",
            "pbrMetallicRoughness" : {
                "baseColorTexture" : {
                    "extensions" : {
                        "KHR_texture_transform" : {
                            "offset" : [
                                0,
                                -1
                            ]
                        }
                    },
                    "index" : 2,
                    "texCoord" : 0
                },
                "metallicFactor" : 0,
                "roughnessFactor" : 0.4343145787715912
            }
        }
    ],
    "meshes" : [
        {
            "name" : "Mesh.005",
            "primitives" : [
                {
                    "attributes" : {
                        "POSITION" : 0,
                        "NORMAL" : 1,
                        "TEXCOORD_0" : 2
                    },
                    "indices" : 3,
                    "material" : 0
                }
            ]
        },
        {
            "name" : "Mesh.006",
            "primitives" : [
                {
                    "attributes" : {
                        "POSITION" : 4,
                        "NORMAL" : 5,
                        "TEXCOORD_0" : 6
                    },
                    "indices" : 7,
                    "material" : 1
                }
            ]
        },
        {
            "name" : "Mesh.007",
            "primitives" : [
                {
                    "attributes" : {
                        "POSITION" : 8,
                        "NORMAL" : 9,
                        "TEXCOORD_0" : 10
                    },
                    "indices" : 11,
                    "material" : 2
                }
            ]
        }
    ],
    "textures" : [
        {
            "source" : 0
        },
        {
            "source" : 1
        },
        {
            "source" : 2
        }
    ],
    "images" : [
        {
            "bufferView" : 4,
            "mimeType" : "image/jpeg",
            "name" : "HNY-BaseArco"
        },
        {
            "bufferView" : 9,
            "mimeType" : "image/jpeg",
            "name" : "HNY-SkinArco"
        },
        {
            "bufferView" : 14,
            "mimeType" : "image/jpeg",
            "name" : "OG-BaseLeon"
        }
    ],
    "accessors" : [
        {
            "bufferView" : 0,
            "componentType" : 5126,
            "count" : 18231,
            "max" : [
                206.01278686523438,
                206.01278686523438,
                0
            ],
            "min" : [
                -206.01278686523438,
                -206.01278686523438,
                -349.154296875
            ],
            "type" : "VEC3"
        },
        {
            "bufferView" : 1,
            "componentType" : 5126,
            "count" : 18231,
            "type" : "VEC3"
        },
        {
            "bufferView" : 2,
            "componentType" : 5126,
            "count" : 18231,
            "type" : "VEC2"
        },
        {
            "bufferView" : 3,
            "componentType" : 5123,
            "count" : 45918,
            "type" : "SCALAR"
        },
        {
            "bufferView" : 5,
            "componentType" : 5126,
            "count" : 5811,
            "max" : [
                99.89411926269531,
                176.29429626464844,
                147.1337432861328
            ],
            "min" : [
                -99.89411926269531,
                -176.29429626464844,
                -147.1337432861328
            ],
            "type" : "VEC3"
        },
        {
            "bufferView" : 6,
            "componentType" : 5126,
            "count" : 5811,
            "type" : "VEC3"
        },
        {
            "bufferView" : 7,
            "componentType" : 5126,
            "count" : 5811,
            "type" : "VEC2"
        },
        {
            "bufferView" : 8,
            "componentType" : 5123,
            "count" : 14184,
            "type" : "SCALAR"
        },
        {
            "bufferView" : 10,
            "componentType" : 5126,
            "count" : 4034,
            "max" : [
                7.677095890045166,
                39.875946044921875,
                -337.5096740722656
            ],
            "min" : [
                -10.828910827636719,
                -39.350791931152344,
                -394.3524169921875
            ],
            "type" : "VEC3"
        },
        {
            "bufferView" : 11,
            "componentType" : 5126,
            "count" : 4034,
            "type" : "VEC3"
        },
        {
            "bufferView" : 12,
            "componentType" : 5126,
            "count" : 4034,
            "type" : "VEC2"
        },
        {
            "bufferView" : 13,
            "componentType" : 5123,
            "count" : 10320,
            "type" : "SCALAR"
        }
    ],
    "bufferViews" : [
        {
            "buffer" : 0,
            "byteLength" : 218772,
            "byteOffset" : 0
        },
        {
            "buffer" : 0,
            "byteLength" : 218772,
            "byteOffset" : 218772
        },
        {
            "buffer" : 0,
            "byteLength" : 145848,
            "byteOffset" : 437544
        },
        {
            "buffer" : 0,
            "byteLength" : 91836,
            "byteOffset" : 583392
        },
        {
            "buffer" : 0,
            "byteLength" : 297347,
            "byteOffset" : 675228
        },
        {
            "buffer" : 0,
            "byteLength" : 69732,
            "byteOffset" : 972576
        },
        {
            "buffer" : 0,
            "byteLength" : 69732,
            "byteOffset" : 1042308
        },
        {
            "buffer" : 0,
            "byteLength" : 46488,
            "byteOffset" : 1112040
        },
        {
            "buffer" : 0,
            "byteLength" : 28368,
            "byteOffset" : 1158528
        },
        {
            "buffer" : 0,
            "byteLength" : 299966,
            "byteOffset" : 1186896
        },
        {
            "buffer" : 0,
            "byteLength" : 48408,
            "byteOffset" : 1486864
        },
        {
            "buffer" : 0,
            "byteLength" : 48408,
            "byteOffset" : 1535272
        },
        {
            "buffer" : 0,
            "byteLength" : 32272,
            "byteOffset" : 1583680
        },
        {
            "buffer" : 0,
            "byteLength" : 20640,
            "byteOffset" : 1615952
        },
        {
            "buffer" : 0,
            "byteLength" : 132142,
            "byteOffset" : 1636592
        }
    ],
    "buffers" : [
        {
            "byteLength" : 1768736,
            "uri" : "data:application/octet-stream;base64,"
        }
    ]
}
