{
    "asset" : {
        "generator" : "Khronos glTF Blender I/O v1.0.5",
        "version" : "2.0"
    },
    "extensionsUsed" : [
        "KHR_texture_transform"
    ],
    "extensionsRequired" : [
        "KHR_texture_transform"
    ],
    "scene" : 0,
    "scenes" : [
        {
            "name" : "Scene",
            "nodes" : [
                0,
                1,
                7
            ]
        }
    ],
    "nodes" : [
        {
            "name" : "Light",
            "rotation" : [
                0.16907575726509094,
                0.7558803558349609,
                -0.27217137813568115,
                0.570947527885437
            ],
            "translation" : [
                4.076245307922363,
                5.903861999511719,
                -1.0054539442062378
            ]
        },
        {
            "name" : "Camera",
            "rotation" : [
                0.483536034822464,
                0.33687159419059753,
                -0.20870360732078552,
                0.7804827094078064
            ],
            "translation" : [
                7.358891487121582,
                4.958309173583984,
                6.925790786743164
            ]
        },
        {
            "mesh" : 0,
            "name" : "BaseArco"
        },
        {
            "mesh" : 1,
            "name" : "BaseLeon"
        },
        {
            "mesh" : 2,
            "name" : "Dragon",
            "translation" : [
                0,
                0,
                -5.905511856079102
            ]
        },
        {
            "mesh" : 3,
            "name" : "SkinArco",
            "translation" : [
                -26.623291015625,
                -7.194400677690282e-05,
                -334.1531066894531
            ]
        },
        {
            "mesh" : 4,
            "name" : "SkinPiso",
            "translation" : [
                18.529460906982422,
                0,
                -183.01475524902344
            ]
        },
        {
            "children" : [
                2,
                3,
                4,
                5,
                6
            ],
            "name" : "UV_ArcoChina",
            "rotation" : [
                0.7071068286895752,
                0,
                0,
                0.7071067094802856
            ]
        }
    ],
    "materials" : [
        {
            "doubleSided" : true,
            "name" : "China-BaseArco",
            "pbrMetallicRoughness" : {
                "baseColorTexture" : {
                    "extensions" : {
                        "KHR_texture_transform" : {
                            "offset" : [
                                0,
                                -1
                            ]
                        }
                    },
                    "index" : 0,
                    "texCoord" : 0
                },
                "metallicFactor" : 0,
                "roughnessFactor" : 0.4343145787715912
            }
        },
        {
            "doubleSided" : true,
            "name" : "China-BaseLeonChina",
            "pbrMetallicRoughness" : {
                "baseColorTexture" : {
                    "extensions" : {
                        "KHR_texture_transform" : {
                            "offset" : [
                                0,
                                -1
                            ]
                        }
                    },
                    "index" : 1,
                    "texCoord" : 0
                },
                "metallicFactor" : 0,
                "roughnessFactor" : 0.4343145787715912
            }
        },
        {
            "doubleSided" : true,
            "name" : "China-Dragon",
            "pbrMetallicRoughness" : {
                "baseColorTexture" : {
                    "extensions" : {
                        "KHR_texture_transform" : {
                            "offset" : [
                                0,
                                -1
                            ]
                        }
                    },
                    "index" : 2,
                    "texCoord" : 0
                },
                "metallicFactor" : 0,
                "roughnessFactor" : 0.4343145787715912
            }
        },
        {
            "doubleSided" : true,
            "name" : "China-SkinArco",
            "pbrMetallicRoughness" : {
                "baseColorTexture" : {
                    "extensions" : {
                        "KHR_texture_transform" : {
                            "offset" : [
                                0,
                                -1
                            ]
                        }
                    },
                    "index" : 3,
                    "texCoord" : 0
                },
                "metallicFactor" : 0,
                "roughnessFactor" : 0.4343145787715912
            }
        },
        {
            "doubleSided" : true,
            "name" : "China-SkinPiso",
            "pbrMetallicRoughness" : {
                "baseColorTexture" : {
                    "extensions" : {
                        "KHR_texture_transform" : {
                            "offset" : [
                                0,
                                -1
                            ]
                        }
                    },
                    "index" : 4,
                    "texCoord" : 0
                },
                "metallicFactor" : 0,
                "roughnessFactor" : 0.4343145787715912
            }
        }
    ],
    "meshes" : [
        {
            "name" : "Mesh.003",
            "primitives" : [
                {
                    "attributes" : {
                        "POSITION" : 0,
                        "NORMAL" : 1,
                        "TEXCOORD_0" : 2
                    },
                    "indices" : 3,
                    "material" : 0
                }
            ]
        },
        {
            "name" : "Mesh.004",
            "primitives" : [
                {
                    "attributes" : {
                        "POSITION" : 4,
                        "NORMAL" : 5,
                        "TEXCOORD_0" : 6
                    },
                    "indices" : 7,
                    "material" : 1
                }
            ]
        },
        {
            "name" : "Mesh.001",
            "primitives" : [
                {
                    "attributes" : {
                        "POSITION" : 8,
                        "NORMAL" : 9,
                        "TEXCOORD_0" : 10
                    },
                    "indices" : 11,
                    "material" : 2
                }
            ]
        },
        {
            "name" : "Mesh",
            "primitives" : [
                {
                    "attributes" : {
                        "POSITION" : 12,
                        "NORMAL" : 13,
                        "TEXCOORD_0" : 14
                    },
                    "indices" : 15,
                    "material" : 3
                }
            ]
        },
        {
            "name" : "Mesh.002",
            "primitives" : [
                {
                    "attributes" : {
                        "POSITION" : 16,
                        "NORMAL" : 17,
                        "TEXCOORD_0" : 18
                    },
                    "indices" : 19,
                    "material" : 4
                }
            ]
        }
    ],
    "textures" : [
        {
            "source" : 0
        },
        {
            "source" : 1
        },
        {
            "source" : 2
        },
        {
            "source" : 3
        },
        {
            "source" : 4
        }
    ],
    "images" : [
        {
            "bufferView" : 4,
            "mimeType" : "image/jpeg",
            "name" : "China-BaseArco"
        },
        {
            "bufferView" : 9,
            "mimeType" : "image/jpeg",
            "name" : "China-BaseLeon"
        },
        {
            "bufferView" : 14,
            "mimeType" : "image/jpeg",
            "name" : "China-SkinDragon"
        },
        {
            "bufferView" : 19,
            "mimeType" : "image/jpeg",
            "name" : "China-SkinArco"
        },
        {
            "bufferView" : 24,
            "mimeType" : "image/jpeg",
            "name" : "China-SkinPiso"
        }
    ],
    "accessors" : [
        {
            "bufferView" : 0,
            "componentType" : 5126,
            "count" : 18159,
            "max" : [
                412.02557373046875,
                412.02557373046875,
                0
            ],
            "min" : [
                -412.02557373046875,
                -412.02557373046875,
                -698.30859375
            ],
            "type" : "VEC3"
        },
        {
            "bufferView" : 1,
            "componentType" : 5126,
            "count" : 18159,
            "type" : "VEC3"
        },
        {
            "bufferView" : 2,
            "componentType" : 5126,
            "count" : 18159,
            "type" : "VEC2"
        },
        {
            "bufferView" : 3,
            "componentType" : 5123,
            "count" : 45846,
            "type" : "SCALAR"
        },
        {
            "bufferView" : 5,
            "componentType" : 5126,
            "count" : 4034,
            "max" : [
                15.354191780090332,
                79.75189208984375,
                -675.0193481445312
            ],
            "min" : [
                -21.657821655273438,
                -78.70158386230469,
                -788.704833984375
            ],
            "type" : "VEC3"
        },
        {
            "bufferView" : 6,
            "componentType" : 5126,
            "count" : 4034,
            "type" : "VEC3"
        },
        {
            "bufferView" : 7,
            "componentType" : 5126,
            "count" : 4034,
            "type" : "VEC2"
        },
        {
            "bufferView" : 8,
            "componentType" : 5123,
            "count" : 10320,
            "type" : "SCALAR"
        },
        {
            "bufferView" : 10,
            "componentType" : 5126,
            "count" : 1374,
            "max" : [
                398.72509765625,
                61.26519012451172,
                7.105427357601002e-15
            ],
            "min" : [
                -367.9869079589844,
                -144.7697296142578,
                -95.78626251220703
            ],
            "type" : "VEC3"
        },
        {
            "bufferView" : 11,
            "componentType" : 5126,
            "count" : 1374,
            "type" : "VEC3"
        },
        {
            "bufferView" : 12,
            "componentType" : 5126,
            "count" : 1374,
            "type" : "VEC2"
        },
        {
            "bufferView" : 13,
            "componentType" : 5123,
            "count" : 3948,
            "type" : "SCALAR"
        },
        {
            "bufferView" : 15,
            "componentType" : 5126,
            "count" : 4051,
            "max" : [
                91.11122131347656,
                284.5622253417969,
                260.2873840332031
            ],
            "min" : [
                -91.11122131347656,
                -284.5622253417969,
                -260.2873840332031
            ],
            "type" : "VEC3"
        },
        {
            "bufferView" : 16,
            "componentType" : 5126,
            "count" : 4051,
            "type" : "VEC3"
        },
        {
            "bufferView" : 17,
            "componentType" : 5126,
            "count" : 4051,
            "type" : "VEC2"
        },
        {
            "bufferView" : 18,
            "componentType" : 5123,
            "count" : 9870,
            "type" : "SCALAR"
        },
        {
            "bufferView" : 20,
            "componentType" : 5126,
            "count" : 1868,
            "max" : [
                301.31304931640625,
                282.7835998535156,
                177.11045837402344
            ],
            "min" : [
                -301.31304931640625,
                -282.7835998535156,
                -177.11045837402344
            ],
            "type" : "VEC3"
        },
        {
            "bufferView" : 21,
            "componentType" : 5126,
            "count" : 1868,
            "type" : "VEC3"
        },
        {
            "bufferView" : 22,
            "componentType" : 5126,
            "count" : 1868,
            "type" : "VEC2"
        },
        {
            "bufferView" : 23,
            "componentType" : 5123,
            "count" : 6168,
            "type" : "SCALAR"
        }
    ],
    "bufferViews" : [
        {
            "buffer" : 0,
            "byteLength" : 217908,
            "byteOffset" : 0
        },
        {
            "buffer" : 0,
            "byteLength" : 217908,
            "byteOffset" : 217908
        },
        {
            "buffer" : 0,
            "byteLength" : 145272,
            "byteOffset" : 435816
        },
        {
            "buffer" : 0,
            "byteLength" : 91692,
            "byteOffset" : 581088
        },
        {
            "buffer" : 0,
            "byteLength" : 298507,
            "byteOffset" : 672780
        },
        {
            "buffer" : 0,
            "byteLength" : 48408,
            "byteOffset" : 971288
        },
        {
            "buffer" : 0,
            "byteLength" : 48408,
            "byteOffset" : 1019696
        },
        {
            "buffer" : 0,
            "byteLength" : 32272,
            "byteOffset" : 1068104
        },
        {
            "buffer" : 0,
            "byteLength" : 20640,
            "byteOffset" : 1100376
        },
        {
            "buffer" : 0,
            "byteLength" : 120826,
            "byteOffset" : 1121016
        },
        {
            "buffer" : 0,
            "byteLength" : 16488,
            "byteOffset" : 1241844
        },
        {
            "buffer" : 0,
            "byteLength" : 16488,
            "byteOffset" : 1258332
        },
        {
            "buffer" : 0,
            "byteLength" : 10992,
            "byteOffset" : 1274820
        },
        {
            "buffer" : 0,
            "byteLength" : 7896,
            "byteOffset" : 1285812
        },
        {
            "buffer" : 0,
            "byteLength" : 340917,
            "byteOffset" : 1293708
        },
        {
            "buffer" : 0,
            "byteLength" : 48612,
            "byteOffset" : 1634628
        },
        {
            "buffer" : 0,
            "byteLength" : 48612,
            "byteOffset" : 1683240
        },
        {
            "buffer" : 0,
            "byteLength" : 32408,
            "byteOffset" : 1731852
        },
        {
            "buffer" : 0,
            "byteLength" : 19740,
            "byteOffset" : 1764260
        },
        {
            "buffer" : 0,
            "byteLength" : 488025,
            "byteOffset" : 1784000
        },
        {
            "buffer" : 0,
            "byteLength" : 22416,
            "byteOffset" : 2272028
        },
        {
            "buffer" : 0,
            "byteLength" : 22416,
            "byteOffset" : 2294444
        },
        {
            "buffer" : 0,
            "byteLength" : 14944,
            "byteOffset" : 2316860
        },
        {
            "buffer" : 0,
            "byteLength" : 12336,
            "byteOffset" : 2331804
        },
        {
            "buffer" : 0,
            "byteLength" : 273922,
            "byteOffset" : 2344140
        }
    ],
    "buffers" : [
        {
            "byteLength" : 2618064,
            "uri" : "data:application/octet-stream;base64,"
        }
    ]
}
