{
    "asset" : {
        "generator" : "Khronos glTF Blender I/O v1.0.5",
        "version" : "2.0"
    },
    "extensionsUsed" : [
        "KHR_texture_transform"
    ],
    "extensionsRequired" : [
        "KHR_texture_transform"
    ],
    "scene" : 0,
    "scenes" : [
        {
            "name" : "Scene",
            "nodes" : [
                0,
                1,
                8
            ]
        }
    ],
    "nodes" : [
        {
            "name" : "Light",
            "rotation" : [
                0.16907575726509094,
                0.7558803558349609,
                -0.27217137813568115,
                0.570947527885437
            ],
            "translation" : [
                4.076245307922363,
                5.903861999511719,
                -1.0054539442062378
            ]
        },
        {
            "name" : "Camera",
            "rotation" : [
                0.483536034822464,
                0.33687159419059753,
                -0.20870360732078552,
                0.7804827094078064
            ],
            "translation" : [
                7.358891487121582,
                4.958309173583984,
                6.925790786743164
            ]
        },
        {
            "mesh" : 0,
            "name" : "HNY_BaseArco"
        },
        {
            "mesh" : 1,
            "name" : "HNY_pyrotechnics",
            "translation" : [
                -98.4251937866211,
                0,
                -447.83465576171875
            ]
        },
        {
            "mesh" : 2,
            "name" : "HNY_pyrotechnics_1",
            "rotation" : [
                0,
                0,
                0.866025447845459,
                0.4999999701976776
            ],
            "translation" : [
                0,
                0,
                -526.5748291015625
            ]
        },
        {
            "mesh" : 3,
            "name" : "HNY_pyrotechnics_2",
            "rotation" : [
                0,
                0,
                -0.866025447845459,
                0.4999999701976776
            ],
            "translation" : [
                0,
                0,
                -378.93701171875
            ]
        },
        {
            "mesh" : 4,
            "name" : "HNY_SkinArco",
            "translation" : [
                46.410762786865234,
                -2.46759805122565e-06,
                -150.0865020751953
            ]
        },
        {
            "mesh" : 5,
            "name" : "OG_BaseLeon.001"
        },
        {
            "children" : [
                2,
                3,
                4,
                5,
                6,
                7
            ],
            "name" : "UV_HNY",
            "rotation" : [
                0.5,
                -0.4999999701976776,
                0.5000000596046448,
                0.4999999403953552
            ]
        }
    ],
    "materials" : [
        {
            "doubleSided" : true,
            "name" : "HNY-BaseArco",
            "pbrMetallicRoughness" : {
                "baseColorTexture" : {
                    "extensions" : {
                        "KHR_texture_transform" : {
                            "offset" : [
                                0,
                                -1
                            ]
                        }
                    },
                    "index" : 0,
                    "texCoord" : 0
                },
                "metallicFactor" : 0,
                "roughnessFactor" : 0.4343145787715912
            }
        },
        {
            "doubleSided" : true,
            "name" : "Pyrotechnic",
            "pbrMetallicRoughness" : {
                "baseColorTexture" : {
                    "extensions" : {
                        "KHR_texture_transform" : {
                            "offset" : [
                                0,
                                -1
                            ]
                        }
                    },
                    "index" : 1,
                    "texCoord" : 0
                },
                "metallicFactor" : 0,
                "roughnessFactor" : 0.4343145787715912
            }
        },
        {
            "doubleSided" : true,
            "name" : "HNY-SkinArco",
            "pbrMetallicRoughness" : {
                "baseColorTexture" : {
                    "extensions" : {
                        "KHR_texture_transform" : {
                            "offset" : [
                                0,
                                -1
                            ]
                        }
                    },
                    "index" : 2,
                    "texCoord" : 0
                },
                "metallicFactor" : 0,
                "roughnessFactor" : 0.4343145787715912
            }
        },
        {
            "doubleSided" : true,
            "name" : "OG-BaseLeon.001",
            "pbrMetallicRoughness" : {
                "baseColorTexture" : {
                    "extensions" : {
                        "KHR_texture_transform" : {
                            "offset" : [
                                0,
                                -1
                            ]
                        }
                    },
                    "index" : 3,
                    "texCoord" : 0
                },
                "metallicFactor" : 0,
                "roughnessFactor" : 0.4343145787715912
            }
        }
    ],
    "meshes" : [
        {
            "name" : "Mesh.005",
            "primitives" : [
                {
                    "attributes" : {
                        "POSITION" : 0,
                        "NORMAL" : 1,
                        "TEXCOORD_0" : 2
                    },
                    "indices" : 3,
                    "material" : 0
                }
            ]
        },
        {
            "name" : "Mesh.004",
            "primitives" : [
                {
                    "attributes" : {
                        "POSITION" : 4,
                        "NORMAL" : 5,
                        "TEXCOORD_0" : 6
                    },
                    "indices" : 7,
                    "material" : 1
                }
            ]
        },
        {
            "name" : "Mesh.003",
            "primitives" : [
                {
                    "attributes" : {
                        "POSITION" : 8,
                        "NORMAL" : 9,
                        "TEXCOORD_0" : 10
                    },
                    "indices" : 7,
                    "material" : 1
                }
            ]
        },
        {
            "name" : "Mesh.002",
            "primitives" : [
                {
                    "attributes" : {
                        "POSITION" : 11,
                        "NORMAL" : 12,
                        "TEXCOORD_0" : 13
                    },
                    "indices" : 7,
                    "material" : 1
                }
            ]
        },
        {
            "name" : "Mesh.006",
            "primitives" : [
                {
                    "attributes" : {
                        "POSITION" : 14,
                        "NORMAL" : 15,
                        "TEXCOORD_0" : 16
                    },
                    "indices" : 17,
                    "material" : 2
                }
            ]
        },
        {
            "name" : "Mesh.007",
            "primitives" : [
                {
                    "attributes" : {
                        "POSITION" : 18,
                        "NORMAL" : 19,
                        "TEXCOORD_0" : 20
                    },
                    "indices" : 21,
                    "material" : 3
                }
            ]
        }
    ],
    "textures" : [
        {
            "source" : 0
        },
        {
            "source" : 1
        },
        {
            "source" : 2
        },
        {
            "source" : 3
        }
    ],
    "images" : [
        {
            "bufferView" : 4,
            "mimeType" : "image/jpeg",
            "name" : "HNY-BaseArco"
        },
        {
            "bufferView" : 9,
            "mimeType" : "image/png",
            "name" : "Pyrotechnic-Pyrotechnic.png"
        },
        {
            "bufferView" : 20,
            "mimeType" : "image/jpeg",
            "name" : "HNY-SkinArco"
        },
        {
            "bufferView" : 25,
            "mimeType" : "image/jpeg",
            "name" : "OG-BaseLeon"
        }
    ],
    "accessors" : [
        {
            "bufferView" : 0,
            "componentType" : 5126,
            "count" : 18231,
            "max" : [
                206.01278686523438,
                206.01278686523438,
                0
            ],
            "min" : [
                -206.01278686523438,
                -206.01278686523438,
                -349.154296875
            ],
            "type" : "VEC3"
        },
        {
            "bufferView" : 1,
            "componentType" : 5126,
            "count" : 18231,
            "type" : "VEC3"
        },
        {
            "bufferView" : 2,
            "componentType" : 5126,
            "count" : 18231,
            "type" : "VEC2"
        },
        {
            "bufferView" : 3,
            "componentType" : 5123,
            "count" : 45918,
            "type" : "SCALAR"
        },
        {
            "bufferView" : 5,
            "componentType" : 5126,
            "count" : 25,
            "max" : [
                -125.6919174194336,
                121.10514831542969,
                118.37590789794922
            ],
            "min" : [
                -204.0055694580078,
                -121.10514831542969,
                -115.58126068115234
            ],
            "type" : "VEC3"
        },
        {
            "bufferView" : 6,
            "componentType" : 5126,
            "count" : 25,
            "type" : "VEC3"
        },
        {
            "bufferView" : 7,
            "componentType" : 5126,
            "count" : 25,
            "type" : "VEC2"
        },
        {
            "bufferView" : 8,
            "componentType" : 5123,
            "count" : 96,
            "type" : "SCALAR"
        },
        {
            "bufferView" : 10,
            "componentType" : 5126,
            "count" : 25,
            "max" : [
                -143.4462127685547,
                138.2115478515625,
                135.0968017578125
            ],
            "min" : [
                -232.82188415527344,
                -138.2115478515625,
                -131.90740966796875
            ],
            "type" : "VEC3"
        },
        {
            "bufferView" : 11,
            "componentType" : 5126,
            "count" : 25,
            "type" : "VEC3"
        },
        {
            "bufferView" : 12,
            "componentType" : 5126,
            "count" : 25,
            "type" : "VEC2"
        },
        {
            "bufferView" : 13,
            "componentType" : 5126,
            "count" : 25,
            "max" : [
                -150.28550720214844,
                144.80126953125,
                141.5380096435547
            ],
            "min" : [
                -243.92247009277344,
                -144.80126953125,
                -138.19654846191406
            ],
            "type" : "VEC3"
        },
        {
            "bufferView" : 14,
            "componentType" : 5126,
            "count" : 25,
            "type" : "VEC3"
        },
        {
            "bufferView" : 15,
            "componentType" : 5126,
            "count" : 25,
            "type" : "VEC2"
        },
        {
            "bufferView" : 16,
            "componentType" : 5126,
            "count" : 5811,
            "max" : [
                99.89411926269531,
                176.29429626464844,
                147.1337432861328
            ],
            "min" : [
                -99.89411926269531,
                -176.29429626464844,
                -147.1337432861328
            ],
            "type" : "VEC3"
        },
        {
            "bufferView" : 17,
            "componentType" : 5126,
            "count" : 5811,
            "type" : "VEC3"
        },
        {
            "bufferView" : 18,
            "componentType" : 5126,
            "count" : 5811,
            "type" : "VEC2"
        },
        {
            "bufferView" : 19,
            "componentType" : 5123,
            "count" : 14184,
            "type" : "SCALAR"
        },
        {
            "bufferView" : 21,
            "componentType" : 5126,
            "count" : 4034,
            "max" : [
                7.677095890045166,
                39.875946044921875,
                -337.5096740722656
            ],
            "min" : [
                -10.828910827636719,
                -39.350791931152344,
                -394.3524169921875
            ],
            "type" : "VEC3"
        },
        {
            "bufferView" : 22,
            "componentType" : 5126,
            "count" : 4034,
            "type" : "VEC3"
        },
        {
            "bufferView" : 23,
            "componentType" : 5126,
            "count" : 4034,
            "type" : "VEC2"
        },
        {
            "bufferView" : 24,
            "componentType" : 5123,
            "count" : 10320,
            "type" : "SCALAR"
        }
    ],
    "bufferViews" : [
        {
            "buffer" : 0,
            "byteLength" : 218772,
            "byteOffset" : 0
        },
        {
            "buffer" : 0,
            "byteLength" : 218772,
            "byteOffset" : 218772
        },
        {
            "buffer" : 0,
            "byteLength" : 145848,
            "byteOffset" : 437544
        },
        {
            "buffer" : 0,
            "byteLength" : 91836,
            "byteOffset" : 583392
        },
        {
            "buffer" : 0,
            "byteLength" : 297347,
            "byteOffset" : 675228
        },
        {
            "buffer" : 0,
            "byteLength" : 300,
            "byteOffset" : 972576
        },
        {
            "buffer" : 0,
            "byteLength" : 300,
            "byteOffset" : 972876
        },
        {
            "buffer" : 0,
            "byteLength" : 200,
            "byteOffset" : 973176
        },
        {
            "buffer" : 0,
            "byteLength" : 192,
            "byteOffset" : 973376
        },
        {
            "buffer" : 0,
            "byteLength" : 882568,
            "byteOffset" : 973568
        },
        {
            "buffer" : 0,
            "byteLength" : 300,
            "byteOffset" : 1856136
        },
        {
            "buffer" : 0,
            "byteLength" : 300,
            "byteOffset" : 1856436
        },
        {
            "buffer" : 0,
            "byteLength" : 200,
            "byteOffset" : 1856736
        },
        {
            "buffer" : 0,
            "byteLength" : 300,
            "byteOffset" : 1856936
        },
        {
            "buffer" : 0,
            "byteLength" : 300,
            "byteOffset" : 1857236
        },
        {
            "buffer" : 0,
            "byteLength" : 200,
            "byteOffset" : 1857536
        },
        {
            "buffer" : 0,
            "byteLength" : 69732,
            "byteOffset" : 1857736
        },
        {
            "buffer" : 0,
            "byteLength" : 69732,
            "byteOffset" : 1927468
        },
        {
            "buffer" : 0,
            "byteLength" : 46488,
            "byteOffset" : 1997200
        },
        {
            "buffer" : 0,
            "byteLength" : 28368,
            "byteOffset" : 2043688
        },
        {
            "buffer" : 0,
            "byteLength" : 299966,
            "byteOffset" : 2072056
        },
        {
            "buffer" : 0,
            "byteLength" : 48408,
            "byteOffset" : 2372024
        },
        {
            "buffer" : 0,
            "byteLength" : 48408,
            "byteOffset" : 2420432
        },
        {
            "buffer" : 0,
            "byteLength" : 32272,
            "byteOffset" : 2468840
        },
        {
            "buffer" : 0,
            "byteLength" : 20640,
            "byteOffset" : 2501112
        },
        {
            "buffer" : 0,
            "byteLength" : 132142,
            "byteOffset" : 2521752
        }
    ],
    "buffers" : [
        {
            "byteLength" : 2653896,
            "uri" : "data:application/octet-stream;base64,"
        }
    ]
}
